<svg xmlns="http://www.w3.org/2000/svg" viewBox="0 0 256 255" fill="none">
  <rect width="256" height="255" rx="60" fill="#306998"/>
  <g clip-path="url(#clip0)">
    <path d="M103.44 0C77.175 0 64.29 12.708 64.29 39.594V56.73H103.44V64.66H43.5C19.375 64.66 0 84.038 0 108.151v39.146C0 172.764 19.497 192 43.623 192H60.056v-36.97C60.056 128.895 80.378 108.534 103.44 108.534h35.23c23.062 0 41.882 20.03 41.882 45.553v39.146C180.55 220.49 164.79 236 144.31 236h-24.86v18.573C124.23 253.858 132.97 256 139.6 256 177.013 256 198.36 234.768 198.36 197.748v-35.23h-58.87V180h62.762C236.236 180 256 159.497 256 135.37V97.225C256 72.502 235.405 53 211.056 53h-19.987V39.594C191.07 13.05 174.97 0 146.84 0h-43.4z" fill="#FFD43B"/>
    <path d="M155.496 18.663c2.873 0 5.083 2.314 5.083 5.187a5.096 5.096 0 01-5.083 5.083 5.1 5.1 0 01-5.083-5.083c0-2.873 2.31-5.187 5.083-5.187zM100.6 220.215c-2.872 0-5.187 2.31-5.187 5.083a5.094 5.094 0 005.187 5.187 5.094 5.094 0 005.083-5.187 5.094 5.094 0 00-5.083-5.083z" fill="#306998"/>
  </g>
</svg>

